arm26_elbow_motion
version=1
nRows=571
nColumns=2
inDegrees=no
endheader
time	r_elbow_flex
24.676701	1.80556417
24.700429	1.83117403
24.710930	1.85458644
24.796113	1.87687042
24.819073	1.89803582
24.834951	1.92041426
24.852346	1.94088451
24.867573	1.96025735
24.878076	1.98005276
24.887215	2.00054470
24.893249	2.02089026
24.901482	2.04132882
24.910165	2.06006084
24.928460	2.07981044
24.953124	2.09871178
24.976598	2.11553520
24.986911	2.13014887
24.993951	2.14251552
25.010845	2.15177986
25.020832	2.15675820
25.030251	2.15769123
25.059029	2.15494454
25.073673	2.14820888
25.109274	2.13743726
25.123563	2.12265054
25.142995	2.10470640
25.157351	2.08431150
25.168015	2.06199200
25.183995	2.03827199
25.212463	2.01392652
25.226974	1.98957719
25.237601	1.96485270
25.243668	1.93869440
25.256295	1.91062836
25.274544	1.88186779
25.289480	1.85380064
25.297410	1.82544322
25.306108	1.79483069
25.322834	1.76212407
25.360253	1.72838551
25.373190	1.69589318
25.388548	1.66301261
25.396171	1.62507694
25.420150	1.58592411
25.428654	1.54759441
25.467696	1.51098583
25.477153	1.47388935
25.495806	1.43413641
25.506228	1.39292489
25.515792	1.35419874
25.536990	1.31518021
25.545644	1.27566287
25.559953	1.23488852
25.571364	1.19494260
25.598185	1.15661453
25.601643	1.11940026
25.618157	1.08265348
25.653354	1.04509181
25.669463	1.00610649
25.695805	0.96654856
25.716622	0.92690319
25.739935	0.88725904
25.753835	0.84735840
25.765131	0.80701264
25.780311	0.76653848
25.797090	0.72619723
25.857957	0.68680535
25.890929	0.64872394
25.917978	0.61175924
25.936730	0.57248083
25.950394	0.53694035
25.960478	0.50301353
25.972583	0.47378928
25.989173	0.44845810
25.998444	0.42710443
26.008904	0.41026873
26.023799	0.40246291
26.039488	0.39921609
26.056055	0.40446975
26.072129	0.41601491
26.081136	0.43335022
26.106082	0.45536550
26.114812	0.48203759
26.139584	0.51304916
26.148004	0.54756027
26.168196	0.58481936
26.176380	0.62508124
26.189779	0.66879408
26.239738	0.71579536
26.257051	0.76517431
26.265651	0.81631615
26.273594	0.86922854
26.289435	0.92358973
26.306228	0.97821239
26.314687	1.03272240
26.329844	1.08733885
26.339301	1.14253913
26.349437	1.19839730
26.372531	1.25435805
26.389329	1.30972190
26.396562	1.36443920
26.424479	1.41861927
26.446911	1.47222677
26.471658	1.52555827
26.478360	1.57792512
26.486884	1.62790630
26.512305	1.67550396
26.523959	1.72044358
26.539840	1.76203581
26.558512	1.80068182
26.589997	1.83628380
26.609925	1.86930761
26.614126	1.90031024
26.624180	1.92990919
26.634212	1.95836447
26.686762	1.98599056
26.702989	2.01178001
26.721981	2.03489764
26.735535	2.05547683
26.751632	2.07462616
26.776657	2.09272288
26.790914	2.11052583
26.801998	2.12833204
26.843560	2.14618081
26.851556	2.16411527
26.868559	2.18150661
26.877960	2.19766527
26.892188	2.21111809
26.926325	2.22020077
26.935354	2.22395916
26.941826	2.22272597
26.951046	2.21669352
26.967046	2.20681665
26.978163	2.19367509
26.992576	2.17770187
27.007324	2.15842558
27.017616	2.13541774
27.032585	2.10964547
27.051354	2.08240911
27.067096	2.05332574
27.083190	2.02101633
27.092928	1.98571878
27.109029	1.95069672
27.126789	1.91816678
27.132983	1.88719998
27.158431	1.85572937
27.177202	1.82340327
27.211197	1.79281667
27.223917	1.76434815
27.235867	1.73486838
27.242825	1.70110411
27.252249	1.66546882
27.261884	1.62894789
27.352107	1.59163393
27.362031	1.55185198
27.373473	1.50248851
27.385216	1.45313130
27.398696	1.40654899
27.411493	1.35943415
27.421121	1.31106451
27.430510	1.26161043
27.438609	1.21160016
27.448708	1.16885151
27.474016	1.12485280
27.487214	1.07872222
27.522367	1.03162804
27.536412	0.98449346
27.556636	0.93762895
27.572555	0.89138959
27.579906	0.84510868
27.588446	0.79911528
27.638656	0.75356302
27.656078	0.70831640
27.665334	0.66339689
27.675557	0.62003539
27.690410	0.57903034
27.701865	0.54144180
27.715465	0.50773790
27.727020	0.47860951
27.736105	0.45527573
27.758792	0.43776147
27.764723	0.42458968
27.780460	0.41504346
27.822784	0.40855056
27.839738	0.40485788
27.857000	0.40413468
27.864642	0.40602567
27.913225	0.41097146
27.921878	0.41910271
27.939199	0.43001270
27.956424	0.44366467
27.962948	0.46038292
27.971910	0.48074198
27.989026	0.50499787
28.003600	0.53098018
28.019746	0.55742969
28.036430	0.58496856
28.054154	0.61440591
28.062474	0.64579702
28.077002	0.67794499
28.095215	0.70980635
28.111401	0.74213759
28.138549	0.77625732
28.156045	0.81259284
28.173350	0.84997990
28.181007	0.88716677
28.189829	0.92375935
28.269512	0.96012485
28.285650	0.99597250
28.306003	1.03199475
28.314308	1.06549185
28.322528	1.09735084
28.338788	1.12780419
28.357847	1.15735564
28.363730	1.18622530
28.373453	1.21566187
28.389069	1.24482053
28.409507	1.27523853
28.421451	1.30555315
28.431009	1.33628147
28.439830	1.36771062
28.454848	1.39952592
28.463806	1.43118736
28.490082	1.46312757
28.496682	1.49565177
28.538323	1.52933921
28.556744	1.56468280
28.566476	1.60093227
28.575290	1.63652011
28.587003	1.67178557
28.603034	1.70659366
28.622436	1.74070756
28.629473	1.77392538
28.637182	1.80496413
28.659747	1.83354350
28.689112	1.86022604
28.699546	1.88546455
28.725732	1.90995552
28.743607	1.93412469
28.824156	1.95784271
28.828132	1.98410501
28.838212	2.01324179
28.859793	2.04196488
28.871721	2.07000043
28.881766	2.09659093
28.891784	2.12162998
28.903748	2.14553870
28.913805	2.16569117
28.921781	2.18187481
28.940657	2.19772769
28.979628	2.21267132
28.987944	2.22589709
29.006179	2.23617894
29.012600	2.24263452
29.021292	2.24533842
29.038017	2.24467548
29.054749	2.24120026
29.088587	2.23502261
29.097016	2.22617159
29.104921	2.21463174
29.123002	2.20093470
29.138074	2.18570552
29.174138	2.16925965
29.188346	2.15142437
29.206672	2.13215549
29.231240	2.11138073
29.242280	2.08982849
29.260693	2.06838052
29.276914	2.04709023
29.291392	2.02486206
29.300336	2.00091061
29.316072	1.97552538
29.331581	1.95128197
29.342499	1.92938407
29.401167	1.90758408
29.422695	1.88380744
29.430063	1.85886712
29.455052	1.83613787
29.471462	1.81778504
29.488771	1.80048125
29.495257	1.78205254
29.504874	1.76396486
29.512279	1.74769543
29.529709	1.73334593
29.538105	1.71640352
29.548845	1.69409962
29.569957	1.66859946
29.590268	1.64204223
29.607300	1.61525495
29.621255	1.58912470
29.638283	1.56284714
29.654823	1.53760413
29.671586	1.51414228
29.679702	1.49158617
29.690922	1.46823420
29.706389	1.44320370
29.724066	1.41616444
29.741077	1.38836203
29.754496	1.36079415
29.771574	1.33383184
29.788250	1.30767342
29.804840	1.28253728
29.821450	1.25784456
29.833398	1.23284427
29.921936	1.20696121
29.938031	1.18077453
29.954725	1.15348119
29.961705	1.12449133
29.977751	1.09395547
29.987150	1.06225275
29.995680	1.02980727
30.004629	0.99714207
30.022019	0.96372497
30.031180	0.92980140
30.041912	0.89594144
30.073513	0.86281834
30.090096	0.83064022
30.107032	0.79934621
30.112690	0.76896584
30.125176	0.74004576
30.139388	0.71294412
30.147968	0.68762321
30.162727	0.66454351
30.207499	0.64441205
30.216012	0.62744439
30.289816	0.61345389
30.300557	0.60058894
30.327229	0.58878642
30.337698	0.57926709
30.356327	0.57167866
30.369138	0.56558356
30.421043	0.56079740
30.437701	0.55665982
30.445778	0.55457517
30.454194	0.55416729
30.471843	0.55432924
30.480088	0.55485327
30.487736	0.55556960
30.509835	0.55654404
30.512273	0.55828810
30.538313	0.56048856
30.554932	0.56322761
30.571661	0.56609001
30.613393	0.56878814
30.683902	0.57137244
30.710927	0.57293849
30.737664	0.57410849
30.749861	0.57409000
30.758547	0.57338188
30.770950	0.57231474
30.787526	0.57110643
30.795675	0.56993470
30.819508	0.56933192
30.837612	0.56844240
30.841737	0.56803360
30.854273	0.56780699
30.871611	0.56769372
30.887762	0.56765614
30.904486	0.56734456
30.913969	0.56693421
30.925723	0.56659068
30.938930	0.56630574
31.005659	0.56596457
31.013154	0.56555694
31.038752	0.56508561
31.045878	0.56462609
31.054185	0.56417339
31.071383	0.56372564
31.078389	0.56340974
31.104455	0.56307908
31.113238	0.56261867
31.134871	0.56196576
31.151610	0.56121451
31.166497	0.56063349
31.182174	0.56003439
31.206665	0.55907138
31.215107	0.55775624
31.239331	0.55638999
31.246120	0.55517099
31.254559	0.55397966
31.272293	0.55263173
31.280662	0.55146032
31.290947	0.55084475
31.304876	0.55080795
31.313110	0.55111018
31.356832	0.55165512
31.376442	0.55253329
31.390217	0.55370132
31.400562	0.55505593
31.419688	0.55637473
31.425314	0.55758335
31.438154	0.55864843
31.454973	0.55958255
31.461625	0.56035188
31.486364	0.56096072
31.540911	0.56128792
31.548038	0.56143333
31.570829	0.56152163
31.579354	0.56165465
31.590845	0.56174836
31.606149	0.56172177
31.614987	0.56160025
31.624118	0.56149421
31.638485	0.56128764
31.648524	0.56096019
31.658366	0.56045530
31.691571	0.55978845
31.755883	0.55888728
31.764854	0.55785165
31.790311	0.55671737
31.806846	0.55549702
31.822685	0.55403650
31.832333	0.55247873
31.857849	0.55098828
31.867521	0.54988932
31.888144	0.54909674
31.896157	0.54846412
31.921970	0.54793726
31.939032	0.54780000
31.945956	0.54802007
31.971695	0.54839934
31.978614	0.54865764
31.989544	0.54875585
32.000425	0.54876771
32.039225	0.54880494
32.045689	0.54881643
32.057703	0.54872681
32.071100	0.54855079
32.079367	0.54827317
32.091701	0.54785377
32.111268	0.54728317
32.121568	0.54654288
32.130972	0.54564582
32.140589	0.54474933
32.148246	0.54387682
32.173522	0.54311065
32.180275	0.54243962
32.229121	0.54180525
32.255109	0.54128868
32.264039	0.54075313
32.274119	0.54014272
32.290828	0.53946225
32.300320	0.53865868
32.320733	0.53771818
32.329063	0.53667802
32.348607	0.53550329
32.359022	0.53422030
32.368601	0.53284828
32.377640	0.53131615
32.401138	0.52969339
32.418126	0.52815990
32.443675	0.52684185
32.459172	0.52569990
32.470713	0.52474909
32.477487	0.52398778
32.502619	0.52348117
32.510221	0.52318773
32.534534	0.52295786
32.559685	0.52270384
32.572618	0.52263797
32.598008	0.52276955
32.621017	0.52296199
32.636076	0.52323969
32.652447	0.52351711
32.669154	0.52388391
32.678234	0.52437647
32.687646	0.52470702
32.706600	0.52480647
32.716034	0.52485829
32.747844	0.52487117
32.771509	0.52479673
32.777585	0.52443681
32.786759	0.52386108
32.822370	0.52323799
32.837396	0.52266698
32.846626	0.52197555
32.870869	0.52104893
32.878770	0.52004174
32.896317	0.51910384
32.924603	0.51810169
32.938802	0.51701994
32.944616	0.51586522
32.968429	0.51466288
32.978139	0.51344255
33.003755	0.51208487
33.020412	0.51068488
33.042500	0.50929153
33.057527	0.50780414
33.066003	0.50627048
33.088018	0.50475823
33.096579	0.50330725
33.120744	0.50196391
33.137278	0.50071178
33.155433	0.49962148
33.171453	0.49873342
33.196295	0.49802023
33.220612	0.49731117
33.227358	0.49669424
33.237008	0.49630696
33.251678	0.49600245
33.266989	0.49564405
33.282860	0.49531792
33.298808	0.49497604
33.314687	0.49479091
33.326511	0.49460337
33.348548	0.49423879
33.357558	0.49380099
33.373937	0.49340713
33.389714	0.49299245
33.440381	0.49256314
33.455097	0.49215494
33.469670	0.49186926
33.478188	0.49175616
33.490254	0.49172567
33.536686	0.49173648
33.544614	0.49174608
33.567984	0.49170693
33.583279	0.49164472
33.600402	0.49152334
33.609042	0.49122319
33.623695	0.49083070
33.638790	0.49035085
33.648752	0.48988425
33.664521	0.48949715
33.689135	0.48906832
33.696118	0.48864462
33.712123	0.48832114
33.718150	0.48802487
33.727121	0.48781591
33.753902	0.48760537
33.772207	0.48737305
33.789653	0.48716129
33.797144	0.48695583
33.808050	0.48673827
33.824470	0.48656079
33.840219	0.48634631
33.848305	0.48610074
33.871122	0.48587104
33.882364	0.48567601
33.905343	0.48545562
33.944243	0.48524679
33.968271	0.48504517
33.986694	0.48487321
33.992636	0.48476372
34.007970	0.48467354
34.016742	0.48459127
34.032322	0.48456277
34.040905	0.48457058
34.056470	0.48457001
34.105287	0.48454450
34.113268	0.48442983
34.124248	0.48426682
34.142739	0.48407257
34.149794	0.48378049
34.172894	0.48337677
34.189302	0.48292239
34.205128	0.48240767
34.213704	0.48193095
34.248542	0.48148149
34.264196	0.48105044
34.274525	0.48064103
34.298081	0.48028416
34.314358	0.47997563
34.322795	0.47971531
34.330859	0.47953446
34.340137	0.47936777
34.356319	0.47914468
34.374509	0.47891421
34.392274	0.47875261
34.406874	0.47861430
34.455160	0.47846631
